<?xml version="1.0" standalone="no"?>
<!DOCTYPE svg PUBLIC "-//W3C//DTD SVG 20010904//EN"
 "http://www.w3.org/TR/2001/REC-SVG-20010904/DTD/svg10.dtd">
<svg version="1.0" xmlns="http://www.w3.org/2000/svg"
 width="900.000000pt" height="900.000000pt" viewBox="0 0 900.000000 900.000000"
 preserveAspectRatio="xMidYMid meet">
<metadata>
Created by potrace 1.10, written by Peter Selinger 2001-2011
</metadata>
<g transform="translate(0.000000,900.000000) scale(0.100000,-0.100000)"
fill="#000000" stroke="none">
<path d="M4305 8809 c-11 -5 -33 -18 -50 -29 -16 -11 -39 -24 -50 -30 -11 -6
-33 -19 -50 -30 -16 -10 -52 -31 -80 -45 -27 -14 -63 -34 -80 -45 -16 -11 -39
-24 -50 -30 -11 -6 -47 -26 -80 -45 -33 -19 -69 -39 -80 -45 -11 -6 -33 -19
-50 -30 -16 -10 -52 -31 -80 -45 -27 -14 -63 -34 -80 -45 -16 -11 -39 -24 -50
-30 -11 -6 -47 -26 -80 -45 -33 -19 -69 -40 -80 -45 -11 -6 -33 -19 -50 -29
-16 -11 -46 -28 -65 -38 -58 -32 -113 -63 -145 -83 -16 -10 -52 -31 -80 -45
-27 -14 -63 -34 -80 -45 -16 -11 -39 -24 -50 -30 -11 -6 -47 -26 -80 -45 -33
-19 -69 -39 -80 -45 -11 -6 -33 -19 -50 -30 -16 -11 -43 -26 -60 -34 -16 -8
-52 -29 -80 -45 -27 -17 -59 -35 -70 -41 -11 -6 -47 -26 -80 -45 -33 -19 -69
-40 -80 -45 -11 -6 -33 -19 -50 -30 -16 -11 -43 -26 -60 -34 -16 -8 -52 -29
-80 -45 -27 -17 -59 -35 -70 -41 -11 -6 -33 -19 -50 -30 -16 -10 -52 -31 -80
-45 -27 -14 -63 -34 -80 -45 -16 -10 -52 -31 -80 -45 -27 -14 -63 -34 -80 -45
-16 -11 -39 -24 -50 -30 -11 -6 -47 -26 -80 -45 -33 -19 -69 -40 -80 -45 -11
-6 -33 -19 -50 -30 -16 -11 -41 -25 -55 -30 -13 -6 -27 -14 -30 -18 -3 -4 -25
-17 -50 -30 -25 -13 -58 -32 -75 -42 -16 -11 -41 -25 -55 -30 -13 -6 -27 -14
-30 -18 -3 -4 -25 -17 -50 -30 -25 -13 -58 -32 -75 -42 -16 -11 -41 -25 -55
-30 -13 -6 -27 -14 -30 -18 -3 -4 -37 -23 -76 -42 l-70 -35 0 -1960 c1 -1947
1 -1960 21 -1977 11 -10 28 -17 37 -18 9 0 20 -5 23 -11 4 -5 17 -15 28 -20
12 -5 49 -25 82 -44 33 -18 83 -46 110 -60 28 -15 77 -42 110 -60 33 -19 83
-46 110 -60 28 -14 64 -35 80 -45 17 -10 64 -35 105 -57 41 -21 93 -50 114
-65 21 -16 47 -28 58 -28 10 0 18 -4 18 -8 0 -4 15 -15 32 -23 79 -38 139 -73
169 -100 18 -16 38 -29 45 -29 15 0 71 -25 109 -50 17 -11 53 -31 80 -45 28
-14 64 -35 80 -45 17 -11 37 -22 45 -26 8 -3 22 -10 30 -15 8 -5 24 -14 35
-19 11 -6 47 -26 80 -45 33 -19 83 -46 110 -60 28 -14 64 -35 80 -45 17 -10
62 -35 100 -56 112 -60 138 -74 170 -94 17 -11 53 -31 80 -45 55 -29 61 -32
157 -93 90 -57 102 -56 93 6 -4 26 -9 907 -11 1957 -2 1051 -5 1921 -6 1935
-2 20 4 28 32 42 19 9 40 21 45 25 6 4 30 18 55 31 25 13 59 32 75 42 17 11
39 24 50 30 11 6 36 20 55 31 19 12 55 32 80 46 25 13 59 33 75 44 17 10 39
23 50 29 11 6 34 19 50 30 17 11 39 24 51 29 11 5 50 27 85 48 35 22 71 42 79
46 8 4 29 16 45 26 17 11 53 32 80 47 89 49 100 55 130 74 17 11 39 24 50 30
11 6 34 19 50 30 17 11 44 26 60 34 17 8 53 29 80 45 28 17 59 35 70 41 11 6
34 19 50 29 17 11 46 28 65 38 62 34 114 64 145 84 17 10 39 23 50 29 11 6 34
19 50 30 17 11 39 24 51 29 19 8 136 76 174 101 8 6 26 15 40 21 13 5 27 13
30 17 3 4 16 13 30 19 14 7 48 26 75 42 28 17 59 35 70 41 11 6 29 16 40 23
11 7 51 30 90 52 38 22 79 45 90 52 11 7 29 17 40 23 11 6 34 19 50 30 17 11
39 24 51 29 11 5 50 27 85 48 35 22 71 42 79 46 8 4 29 16 45 27 17 11 37 23
45 27 18 8 158 89 180 103 8 6 24 15 35 20 11 6 34 19 50 30 17 11 39 24 51
29 11 5 50 27 85 48 35 22 71 42 79 46 8 4 29 16 45 26 17 11 64 36 105 57 41
21 83 45 93 53 21 18 22 41 1 41 -14 0 -48 15 -94 41 -8 5 -21 11 -27 14 -31
12 -43 18 -128 65 -49 27 -126 68 -170 90 -44 23 -107 57 -140 75 -33 18 -96
52 -140 75 -44 23 -107 57 -140 75 -33 19 -67 37 -75 40 -8 4 -22 11 -30 16
-8 5 -37 20 -65 35 -27 14 -90 47 -140 74 -49 27 -126 68 -170 90 -44 23 -107
57 -140 75 -33 18 -96 52 -140 75 -44 23 -107 57 -140 76 -33 18 -67 36 -75
40 -8 3 -22 10 -30 15 -8 5 -37 20 -65 34 -27 14 -57 30 -65 35 -8 5 -22 11
-30 15 -8 3 -42 21 -75 40 -33 19 -82 46 -110 60 -70 37 -91 49 -106 61 -23
18 -43 22 -64 13z m74 -141 c20 -7 59 -26 86 -42 60 -35 154 -85 334 -177 74
-38 144 -78 156 -89 12 -11 28 -20 36 -21 8 0 46 -18 84 -39 39 -22 93 -51
120 -65 88 -46 114 -60 132 -73 10 -7 65 -36 123 -65 149 -75 363 -188 376
-198 13 -10 109 -61 256 -136 59 -29 110 -58 113 -62 6 -11 82 -51 96 -51 22
0 139 -85 139 -101 0 -11 -96 -80 -145 -104 -22 -11 -42 -23 -45 -26 -5 -6
-47 -31 -141 -82 -24 -13 -60 -33 -79 -45 -19 -12 -47 -27 -62 -33 -16 -6 -28
-15 -28 -19 0 -4 -12 -13 -27 -19 -16 -6 -57 -29 -93 -51 -36 -22 -76 -45 -90
-52 -14 -7 -44 -26 -68 -41 -24 -15 -55 -33 -70 -40 -15 -6 -40 -21 -57 -33
-16 -13 -66 -41 -110 -64 -44 -23 -87 -47 -95 -55 -8 -7 -49 -30 -90 -52 -41
-22 -97 -54 -124 -71 -28 -18 -58 -32 -67 -32 -10 0 -22 -6 -26 -13 -9 -14
-75 -56 -177 -112 -38 -21 -112 -64 -163 -96 -52 -33 -98 -59 -103 -59 -11 0
-161 -87 -230 -133 -30 -21 -59 -37 -63 -37 -5 0 -49 -25 -99 -56 -49 -30 -99
-59 -111 -65 -12 -5 -29 -13 -37 -18 -8 -5 -22 -12 -30 -15 -8 -4 -27 -14 -42
-24 -61 -39 -167 -102 -173 -102 -3 0 -21 -11 -38 -24 -18 -13 -48 -31 -67
-40 -35 -16 -94 -50 -160 -93 -19 -13 -40 -23 -47 -23 -6 0 -55 -29 -109 -65
-54 -36 -102 -65 -106 -65 -5 0 -26 -11 -47 -24 -56 -36 -97 -40 -158 -17 -29
10 -60 26 -68 35 -9 9 -24 16 -34 16 -9 0 -21 4 -26 9 -9 8 -174 94 -550 286
-66 34 -154 81 -195 103 -41 23 -109 59 -150 79 -41 20 -110 55 -152 79 -43
24 -82 44 -89 44 -6 0 -31 14 -56 30 -24 17 -52 30 -62 30 -11 0 -21 6 -24 14
-3 7 -61 41 -129 76 -68 34 -130 68 -139 76 -8 8 -19 14 -24 14 -16 0 -93 41
-105 56 -7 7 -20 14 -29 14 -9 0 -22 5 -27 10 -6 6 -52 31 -104 58 -121 62
-126 69 -72 122 24 22 56 43 72 47 17 3 30 9 30 13 0 8 81 58 182 112 28 15
58 33 67 41 9 8 58 35 109 61 51 25 108 57 125 70 18 12 39 26 47 30 8 4 40
22 71 39 30 18 84 47 120 66 35 18 76 42 91 52 14 11 32 19 39 19 7 0 19 7 28
15 21 21 112 76 186 114 33 16 90 48 127 70 37 23 72 41 79 41 7 0 22 9 34 20
19 18 172 108 280 165 22 11 58 32 80 45 22 14 52 32 67 40 15 8 73 42 130 74
57 32 118 67 137 77 18 10 41 24 50 32 9 8 30 19 46 24 17 6 48 22 69 37 22
15 50 29 63 32 13 4 23 9 23 14 0 4 17 15 38 26 20 10 44 24 52 31 14 11 71
43 195 109 28 14 64 37 81 50 17 13 56 35 85 50 67 32 100 50 164 90 28 17 66
36 86 43 20 6 44 20 54 30 9 11 31 25 48 32 18 7 37 17 42 22 22 18 82 45 104
46 14 0 41 -5 60 -11z m-3494 -1937 c3 -5 19 -12 35 -16 17 -4 30 -10 30 -15
0 -5 14 -11 30 -15 17 -4 30 -11 30 -16 0 -5 9 -9 19 -9 11 0 26 -6 33 -12 12
-12 53 -33 98 -52 8 -4 42 -22 75 -42 33 -19 72 -39 88 -45 15 -6 27 -15 27
-20 0 -5 9 -9 19 -9 11 0 26 -6 33 -12 7 -7 31 -21 53 -32 22 -10 47 -22 55
-27 8 -5 27 -14 43 -20 15 -6 27 -15 27 -19 0 -4 12 -11 27 -15 15 -3 30 -10
33 -13 3 -4 41 -25 85 -47 44 -22 82 -43 85 -47 3 -3 18 -10 33 -13 15 -4 27
-10 27 -14 0 -4 25 -18 55 -31 30 -13 55 -27 55 -32 0 -4 9 -8 19 -8 11 0 26
-7 35 -15 8 -8 21 -15 29 -15 8 0 20 -7 27 -15 7 -8 21 -15 32 -15 10 0 21 -7
24 -15 4 -8 14 -15 24 -15 10 0 25 -6 32 -12 16 -16 101 -58 116 -58 6 0 12
-3 14 -7 2 -5 39 -26 83 -48 44 -22 84 -44 90 -48 5 -4 53 -29 105 -56 52 -26
106 -54 120 -61 14 -7 32 -17 40 -21 8 -4 35 -18 60 -29 25 -12 52 -26 60 -31
8 -5 39 -21 69 -35 30 -15 61 -33 69 -40 7 -8 19 -14 25 -14 7 -1 25 -12 41
-25 l30 -24 -28 -54 -27 -55 -4 -594 c-2 -326 -5 -600 -5 -608 -1 -8 -1 -96 0
-195 1 -99 2 -653 1 -1232 l-1 -1052 -36 -7 c-20 -4 -39 -2 -43 3 -3 5 -27 17
-53 27 -25 9 -52 24 -59 32 -7 8 -28 22 -46 29 -19 8 -55 28 -79 45 -25 16
-51 30 -58 30 -6 0 -27 11 -46 25 -19 14 -41 25 -51 25 -9 0 -22 7 -29 15 -7
8 -16 15 -21 15 -5 0 -41 20 -81 45 -40 25 -76 45 -79 45 -11 0 -271 149 -290
166 -8 8 -23 14 -32 14 -9 0 -36 9 -59 19 -24 11 -74 31 -113 47 -98 38 -206
100 -278 160 -52 42 -148 106 -219 145 -10 5 -26 13 -35 19 -10 5 -38 19 -63
31 -66 33 -269 147 -315 178 -22 14 -53 39 -70 55 l-30 29 -3 456 c-1 251 -4
1091 -5 1868 -2 1375 -2 1413 -21 1426 -11 8 -16 19 -12 25 9 14 42 16 51 3z"/>
<path d="M7805 6890 c-33 -22 -65 -43 -71 -48 -5 -4 -26 -15 -45 -26 -70 -38
-105 -58 -134 -76 -16 -11 -43 -26 -60 -34 -16 -8 -52 -29 -80 -45 -27 -17
-61 -36 -75 -41 -13 -6 -27 -14 -30 -18 -3 -4 -16 -13 -30 -19 -14 -7 -47 -26
-75 -42 -27 -17 -59 -35 -71 -40 -11 -5 -50 -27 -85 -48 -35 -22 -71 -42 -79
-46 -8 -4 -42 -23 -75 -42 -33 -19 -69 -40 -80 -45 -11 -6 -33 -19 -50 -30
-16 -11 -43 -26 -60 -34 -16 -8 -52 -29 -80 -45 -27 -17 -59 -35 -70 -41 -11
-6 -47 -26 -80 -45 -33 -20 -72 -40 -87 -46 -16 -6 -28 -14 -28 -19 0 -4 -8
-10 -17 -14 -10 -3 -25 -10 -33 -15 -8 -5 -22 -12 -30 -15 -8 -4 -28 -15 -45
-26 -16 -11 -39 -24 -50 -30 -11 -6 -47 -26 -80 -45 -33 -19 -69 -39 -80 -45
-11 -6 -33 -19 -50 -30 -16 -10 -52 -31 -80 -45 -27 -14 -63 -34 -80 -45 -16
-11 -39 -24 -50 -30 -11 -6 -33 -19 -50 -30 -16 -10 -52 -30 -80 -45 -27 -14
-77 -41 -110 -60 -33 -20 -69 -40 -80 -45 -11 -6 -33 -19 -50 -29 -16 -11 -46
-28 -65 -38 -60 -33 -114 -64 -145 -83 -16 -11 -43 -26 -60 -34 -16 -8 -52
-29 -80 -45 -27 -17 -61 -36 -75 -41 -13 -6 -27 -14 -30 -18 -3 -4 -16 -13
-30 -19 -14 -7 -47 -26 -75 -42 -27 -17 -61 -36 -75 -41 -13 -6 -27 -14 -30
-18 -3 -4 -16 -13 -30 -19 -14 -7 -47 -26 -75 -42 -27 -17 -60 -35 -72 -40
-12 -6 -41 -22 -64 -37 -23 -14 -71 -41 -106 -59 l-64 -33 -2 -656 c-1 -453 1
-656 9 -656 5 0 15 5 21 11 6 6 20 16 32 23 11 6 80 47 153 91 174 105 169
102 198 115 13 6 27 14 30 18 3 4 16 13 30 19 14 7 48 26 75 42 28 17 59 35
70 41 11 6 34 19 50 29 17 11 50 30 75 42 25 13 63 35 85 50 59 39 126 77 158
90 15 6 27 15 27 20 0 5 5 9 11 9 10 0 123 63 179 100 8 6 24 14 35 19 18 8
239 137 275 161 8 6 27 15 43 21 15 6 27 15 27 20 0 5 5 9 11 9 11 0 128 67
139 79 17 20 72 51 90 51 24 0 27 15 4 24 -38 14 -66 6 -189 -57 -33 -17 -64
-35 -70 -40 -11 -10 -78 -45 -147 -78 -27 -12 -48 -25 -48 -30 0 -5 -22 -20
-48 -33 -27 -13 -54 -32 -61 -40 -8 -9 -20 -16 -28 -16 -8 0 -43 -16 -76 -36
-34 -20 -69 -40 -77 -45 -8 -5 -28 -15 -45 -22 -16 -8 -36 -21 -44 -30 -7 -10
-21 -17 -30 -17 -9 0 -32 -13 -51 -30 -19 -16 -41 -29 -48 -30 -7 0 -31 -13
-54 -30 -22 -16 -46 -30 -53 -30 -6 0 -34 -16 -61 -35 -27 -19 -56 -35 -65
-35 -9 0 -33 -13 -54 -30 -21 -17 -42 -30 -48 -30 -6 0 -20 -9 -31 -19 -12
-10 -56 -37 -98 -59 -43 -22 -90 -49 -105 -60 -47 -33 -154 -82 -178 -82 -48
0 -48 -2 -47 525 1 313 5 509 12 534 11 41 50 78 125 117 22 12 67 36 100 53
32 18 66 38 75 46 8 7 26 18 40 24 14 6 32 15 40 21 8 5 56 33 105 61 50 28
102 60 116 70 15 10 57 34 95 54 95 50 119 64 191 107 34 21 67 38 73 38 5 0
19 9 30 20 11 11 28 20 39 20 10 0 38 15 62 33 24 19 76 49 114 68 39 19 90
49 114 67 24 18 51 32 60 32 9 0 34 14 55 30 22 17 44 30 48 30 5 0 24 11 41
23 18 13 61 39 97 57 91 46 102 53 125 72 11 9 36 24 56 32 19 8 60 31 89 50
30 20 58 36 61 36 7 0 163 87 199 110 8 5 29 17 45 25 17 8 44 24 60 35 29 19
59 36 139 79 22 11 44 25 50 31 5 5 18 10 27 10 10 0 24 7 32 15 18 18 67 47
132 81 52 26 72 38 115 65 14 9 50 30 80 47 30 16 92 51 138 76 45 25 86 46
90 46 5 0 19 11 32 25 13 14 27 25 31 25 12 0 52 19 84 40 17 11 46 27 65 36
19 9 47 23 62 30 39 21 67 17 77 -8 7 -20 8 -380 4 -1958 -1 -287 -4 -902 -7
-1365 -2 -324 -4 -334 -71 -373 -19 -12 -35 -25 -35 -30 0 -5 -22 -18 -48 -29
-27 -11 -71 -37 -98 -58 -27 -21 -60 -43 -74 -48 -14 -6 -36 -19 -49 -29 -13
-10 -29 -18 -36 -18 -8 0 -36 -15 -64 -32 -28 -18 -72 -46 -99 -62 -104 -64
-155 -102 -163 -123 -5 -13 -13 -23 -18 -23 -13 0 -20 -35 -10 -51 6 -10 11
-6 18 14 6 15 19 30 28 34 23 8 94 41 113 52 46 28 167 98 180 104 8 4 29 16
45 27 17 11 39 24 50 30 11 6 34 19 50 30 17 11 41 25 55 30 13 6 27 14 30 18
3 4 16 13 30 19 34 17 96 53 147 86 24 15 47 27 52 27 28 0 31 37 35 511 8
867 7 3394 -1 3396 -4 1 -35 -15 -68 -37z"/>
<path d="M6169 4613 c-11 -13 -15 -137 -19 -661 -4 -560 -7 -646 -20 -652 -8
-4 -33 -16 -55 -26 -22 -10 -47 -24 -55 -30 -8 -6 -44 -27 -80 -46 -36 -20
-81 -45 -100 -56 -19 -12 -57 -33 -85 -47 -56 -29 -132 -71 -185 -104 -19 -11
-47 -26 -62 -32 -16 -6 -28 -15 -28 -20 0 -5 -8 -9 -17 -9 -9 0 -24 -6 -32
-14 -9 -7 -45 -29 -81 -48 -36 -20 -81 -45 -100 -56 -19 -12 -48 -28 -65 -36
-16 -8 -52 -29 -80 -45 -27 -16 -72 -41 -100 -56 -27 -14 -77 -41 -110 -60
-33 -20 -69 -40 -80 -45 -11 -6 -33 -19 -50 -30 -16 -10 -52 -31 -80 -45 -27
-14 -63 -34 -80 -45 -16 -10 -52 -30 -80 -45 -27 -14 -85 -45 -128 -68 l-78
-42 -2 -673 c-1 -369 2 -672 6 -672 4 0 47 26 95 58 48 31 94 60 103 64 8 3
46 24 82 47 37 23 69 41 72 41 2 0 23 12 47 28 69 44 82 51 103 62 11 6 34 19
50 30 17 11 39 24 50 30 11 6 34 19 50 30 17 11 42 25 58 31 15 6 27 15 27 20
0 5 5 9 11 9 10 0 123 63 179 100 8 6 24 15 35 20 11 6 34 19 50 30 17 11 39
24 50 30 11 6 34 19 50 30 17 10 54 31 83 47 28 15 52 31 52 35 0 4 5 8 11 8
6 0 48 22 93 49 130 79 150 90 171 101 11 6 34 19 50 30 17 11 39 24 50 30 11
6 34 19 50 30 17 11 42 25 58 31 15 6 27 15 27 20 0 5 5 9 11 9 6 0 59 29 118
64 163 98 175 105 196 116 11 6 34 19 50 30 17 11 39 24 50 30 11 6 34 19 50
30 17 11 41 25 55 30 13 6 27 14 30 18 3 4 17 15 33 25 19 13 31 15 40 7 47
-40 62 -50 73 -50 7 0 14 -4 16 -8 5 -13 201 -128 229 -135 14 -4 31 -18 39
-31 7 -14 17 -23 22 -20 9 6 -16 57 -47 92 -29 34 -175 128 -263 169 -55 25
-83 33 -104 29 -38 -7 -185 -79 -228 -111 -19 -14 -38 -25 -43 -25 -5 0 -23
-10 -40 -22 -17 -12 -45 -29 -61 -38 -17 -9 -62 -36 -99 -59 -38 -23 -80 -47
-95 -52 -15 -6 -36 -19 -47 -29 -11 -10 -47 -33 -80 -50 -33 -17 -62 -35 -65
-39 -3 -4 -30 -20 -60 -35 -107 -53 -159 -81 -177 -96 -10 -8 -34 -24 -53 -34
-19 -10 -44 -27 -55 -36 -11 -10 -36 -25 -55 -35 -29 -14 -131 -73 -200 -116
-8 -5 -26 -15 -40 -21 -14 -7 -39 -22 -56 -35 -16 -12 -51 -31 -76 -43 -25
-11 -51 -27 -58 -35 -7 -8 -18 -15 -24 -15 -6 0 -29 -14 -50 -30 -22 -17 -46
-30 -54 -30 -8 0 -29 -11 -46 -24 -17 -13 -49 -33 -71 -45 -22 -12 -60 -35
-85 -51 -72 -47 -325 -180 -343 -180 -27 0 -30 60 -29 572 2 435 4 533 16 556
8 15 40 42 73 61 32 19 69 42 83 51 14 9 59 34 100 54 41 21 81 43 89 49 7 7
31 21 52 32 41 22 146 80 169 94 8 5 30 15 48 21 17 7 32 16 32 21 0 4 17 15
38 24 20 9 44 21 52 26 8 5 40 22 70 38 30 16 73 41 95 57 22 15 83 49 135 77
52 27 111 59 130 71 77 50 98 62 165 96 126 66 223 119 261 145 20 14 40 25
45 25 8 0 49 26 107 70 67 50 65 31 67 690 1 646 -4 724 -46 673z"/>
<path d="M7060 2522 c0 -10 98 -85 140 -107 19 -9 58 -29 85 -42 28 -14 62
-34 77 -44 15 -11 88 -50 162 -88 75 -37 142 -74 151 -81 40 -33 2 -68 -170
-160 -44 -24 -98 -54 -120 -67 -22 -13 -62 -35 -90 -49 -60 -30 -90 -47 -170
-95 -33 -20 -94 -53 -135 -74 -41 -20 -100 -51 -130 -69 -71 -41 -138 -66
-175 -66 -33 0 -109 32 -120 50 -4 6 -18 15 -31 20 -35 14 -30 34 19 73 39 33
176 118 221 138 12 5 41 23 66 39 25 16 70 43 100 60 61 36 130 97 130 117 0
17 -55 6 -95 -19 -16 -10 -42 -23 -57 -29 -16 -6 -28 -15 -28 -20 0 -5 -5 -9
-11 -9 -6 0 -67 -34 -136 -75 -68 -41 -126 -75 -128 -75 -2 0 -21 -12 -42 -26
-21 -14 -47 -30 -58 -35 -11 -5 -33 -18 -50 -29 -16 -11 -37 -23 -45 -26 -8
-4 -34 -15 -58 -26 l-43 -20 22 -24 c12 -13 29 -24 37 -24 12 0 43 -14 92 -41
8 -5 38 -20 65 -34 28 -15 64 -35 80 -45 17 -11 40 -24 53 -30 25 -11 68 -4
78 12 3 5 16 14 27 19 12 5 40 20 62 32 58 34 172 96 235 130 30 16 69 37 85
47 17 10 57 32 90 49 33 17 83 44 110 60 54 32 80 46 190 105 39 21 97 53 130
71 33 18 80 43 105 55 98 48 110 55 110 67 0 7 -4 13 -10 13 -10 0 -130 53
-160 70 -8 5 -76 39 -150 77 -74 37 -137 71 -140 74 -3 3 -43 25 -90 48 -47
23 -92 46 -100 51 -90 50 -180 77 -180 52z"/>
<path d="M1500 2370 c-8 -5 -35 -19 -60 -30 -25 -11 -58 -29 -75 -40 -16 -11
-39 -24 -51 -29 -19 -8 -136 -76 -174 -101 -8 -6 -26 -15 -40 -21 -13 -5 -27
-13 -30 -17 -3 -4 -16 -13 -30 -19 -14 -7 -47 -26 -75 -42 -54 -32 -119 -65
-147 -74 -32 -11 -14 -56 22 -57 8 -1 47 -18 87 -38 94 -48 279 -145 423 -219
191 -100 390 -203 475 -247 44 -22 86 -47 93 -53 23 -22 64 -27 88 -12 110 68
251 150 307 179 60 31 87 60 56 60 -12 0 -305 146 -439 218 -41 23 -122 64
-180 92 -58 28 -113 56 -122 61 -21 11 -58 12 -58 2 0 -11 53 -63 64 -63 5 0
20 -10 32 -21 26 -25 59 -45 89 -56 41 -14 273 -141 311 -169 17 -13 39 -24
50 -24 10 0 32 -12 48 -26 25 -22 27 -28 17 -50 -6 -13 -28 -32 -48 -41 -21
-9 -50 -28 -64 -41 -18 -16 -43 -25 -80 -29 -53 -5 -60 -3 -198 68 -79 41
-173 89 -210 107 -36 19 -77 40 -91 48 -14 8 -56 30 -95 49 -38 19 -92 47
-120 63 -27 16 -101 56 -163 88 -63 33 -118 66 -122 75 -17 30 71 90 415 283
56 32 147 115 139 128 -7 10 -25 9 -44 -2z"/>
<path d="M1785 2199 c-32 -9 -77 -31 -135 -67 -32 -19 -80 -72 -80 -87 0 -14
42 -2 100 30 36 19 77 40 93 46 15 6 27 15 27 20 0 5 6 9 13 9 8 0 24 9 37 20
13 11 27 20 32 20 4 0 8 5 8 10 0 12 -53 12 -95 -1z"/>
<path d="M5115 969 c-4 -5 -17 -15 -28 -20 -12 -5 -49 -25 -82 -43 -33 -19
-87 -48 -120 -65 -33 -17 -82 -44 -110 -60 -27 -16 -72 -42 -100 -56 -131 -68
-254 -136 -300 -166 -68 -43 -68 -43 -121 -7 -52 35 -109 69 -159 94 -16 8
-43 23 -60 34 -16 11 -52 31 -80 45 -27 14 -63 35 -80 45 -16 11 -52 31 -80
45 -27 14 -63 35 -80 45 -16 11 -39 24 -50 30 -42 23 -67 38 -78 49 -14 14
-64 14 -72 0 -4 -5 -17 -15 -28 -20 -12 -5 -35 -18 -52 -29 -16 -10 -52 -30
-80 -45 -27 -14 -57 -29 -65 -34 -50 -28 -80 -41 -94 -41 -18 0 -40 -36 -31
-50 3 -6 13 -10 22 -10 8 0 27 -6 41 -14 15 -8 34 -17 42 -20 8 -4 29 -15 45
-26 17 -10 50 -29 75 -42 25 -13 47 -26 50 -30 3 -4 17 -12 30 -18 14 -5 48
-24 75 -41 28 -16 64 -37 80 -45 17 -8 46 -24 65 -36 19 -11 64 -37 100 -56
36 -19 82 -46 103 -59 21 -13 48 -28 60 -34 12 -5 36 -18 52 -29 17 -10 50
-29 75 -42 25 -13 47 -26 50 -30 3 -4 17 -12 30 -18 14 -5 39 -19 55 -30 17
-11 39 -24 50 -30 11 -5 28 -16 38 -22 13 -10 21 -10 35 0 9 6 26 17 37 22 11
6 34 19 50 30 17 11 44 26 60 34 17 8 53 29 80 45 28 16 73 41 100 56 28 14
77 41 110 60 33 20 69 40 80 45 11 6 47 26 80 45 33 19 70 40 82 45 12 5 39
20 60 33 21 13 67 40 103 59 36 19 92 50 125 68 108 60 209 110 223 110 21 0
9 30 -18 45 -14 7 -72 37 -130 65 -112 56 -120 60 -192 103 -51 30 -63 32 -73
16z m69 -101 c22 -6 48 -17 57 -25 8 -7 21 -13 27 -13 16 0 82 -60 82 -75 0
-15 -46 -47 -160 -110 -47 -26 -101 -58 -120 -70 -19 -13 -46 -26 -58 -30 -13
-4 -43 -19 -65 -35 -23 -15 -85 -50 -137 -78 -202 -106 -235 -124 -250 -136
-8 -7 -56 -36 -106 -64 -131 -75 -136 -74 -319 32 -82 48 -186 108 -231 134
-45 26 -94 55 -110 64 -16 9 -74 40 -129 68 -55 29 -107 58 -115 65 -8 8 -36
23 -62 34 -27 11 -48 25 -48 30 0 5 -13 14 -29 19 -17 6 -37 24 -45 41 l-16
30 52 39 c29 21 67 44 83 50 71 25 82 24 162 -19 43 -23 92 -48 108 -57 17 -9
54 -31 82 -49 29 -18 64 -38 79 -43 15 -6 40 -20 55 -31 29 -21 83 -50 214
-117 104 -54 150 -51 285 16 58 29 121 62 140 74 56 33 130 74 200 111 124 64
245 130 265 143 24 17 55 18 109 2z"/>
</g>
</svg>
