<?xml version="1.0" standalone="no"?>
<!DOCTYPE svg PUBLIC "-//W3C//DTD SVG 20010904//EN"
 "http://www.w3.org/TR/2001/REC-SVG-20010904/DTD/svg10.dtd">
<svg version="1.0" xmlns="http://www.w3.org/2000/svg"
 width="900.000000pt" height="900.000000pt" viewBox="0 0 900.000000 900.000000"
 preserveAspectRatio="xMidYMid meet">
<metadata>
Created by potrace 1.10, written by Peter Selinger 2001-2011
</metadata>
<g transform="translate(0.000000,900.000000) scale(0.100000,-0.100000)"
fill="#000000" stroke="none">
<path d="M5602 7204 l3 -766 282 2 282 1 3 -71 3 -71 400 0 400 0 0 65 c0 35
3 67 7 71 5 6 422 7 508 2 l24 -2 1 767 0 768 -958 0 -957 0 2 -766z m1438
692 c173 -1 328 -6 343 -10 31 -9 57 -58 62 -116 2 -19 8 -60 13 -90 13 -70 6
-712 -10 -920 -14 -190 -22 -213 -80 -228 -49 -12 -65 -13 -168 -12 -148 2
-185 -7 -248 -59 -72 -59 -100 -76 -137 -85 -16 -4 -139 -8 -273 -7 -270 0
-244 -6 -335 75 -65 58 -97 65 -283 67 -203 2 -235 10 -245 59 -4 19 -10 311
-14 648 -5 536 -4 616 10 642 8 16 22 33 31 38 8 5 238 7 517 4 276 -2 644 -5
817 -6z"/>
<path d="M6929 7716 c-3 -3 -182 -6 -398 -6 -451 -1 -542 -8 -584 -48 -15 -14
-32 -43 -38 -64 -5 -21 -12 -209 -15 -418 -5 -345 -4 -383 12 -412 9 -18 20
-40 24 -48 4 -8 22 -25 40 -37 36 -25 59 -26 640 -29 102 0 241 -2 310 -4 156
-4 215 9 265 60 25 26 37 49 43 85 12 68 5 795 -7 795 -4 0 -13 16 -20 36 -15
42 -59 71 -116 78 -104 13 -151 16 -156 12z m228 -80 c5 -5 4 -898 -1 -903 -5
-5 -1187 -5 -1192 0 -3 3 -7 870 -4 907 0 6 1191 2 1197 -4z"/>
<path d="M7580 7698 c0 -2 -1 -209 -3 -460 -2 -374 0 -459 11 -463 8 -3 76 -5
153 -5 l139 0 0 465 0 465 -150 0 c-82 0 -150 -1 -150 -2z m191 -104 c27 -16
39 -359 21 -597 -6 -77 -10 -92 -31 -108 -33 -27 -63 -24 -97 12 l-29 30 -3
287 c-3 204 0 298 8 327 7 22 14 46 16 53 3 11 17 12 57 7 28 -4 55 -9 58 -11z"/>
<path d="M463 6494 c-3 -8 -1 -20 4 -25 5 -5 919 -8 2379 -7 2361 3 2369 3
2369 23 0 20 -8 20 -2373 23 -2148 2 -2373 1 -2379 -14z"/>
<path d="M5840 6153 l0 -73 697 2 698 3 -1 70 -1 70 -696 1 -697 1 0 -74z"/>
<path d="M7274 6198 c-10 -16 24 -38 58 -38 31 0 88 -36 88 -56 0 -6 7 -17 15
-24 8 -7 15 -27 15 -44 0 -17 9 -49 21 -70 17 -33 20 -49 14 -110 l-7 -71 32
-24 c26 -18 40 -22 70 -17 33 5 43 2 74 -26 28 -25 36 -39 36 -66 0 -18 -6
-39 -12 -46 -63 -65 -96 -105 -102 -123 -4 -12 -13 -27 -21 -33 -33 -27 -5
-172 34 -178 12 -2 21 2 22 10 2 26 -3 53 -12 63 -12 12 -12 95 1 95 5 0 13
12 16 27 4 15 24 46 45 68 73 78 79 87 79 125 0 45 -42 100 -76 100 -12 0 -26
4 -29 10 -3 5 -28 12 -55 16 -28 4 -50 7 -51 8 0 0 -5 37 -9 81 -16 145 -26
199 -38 203 -7 2 -12 13 -12 25 0 12 -19 41 -42 64 -39 40 -46 43 -94 43 -29
0 -56 -5 -60 -12z"/>
<path d="M4344 5981 c-2 -2 -4 -164 -4 -358 l0 -354 376 2 376 2 -1 -736 -2
-736 353 -3 c194 -2 357 -2 361 0 4 2 7 335 7 739 l-1 736 375 -2 376 -2 -2
356 -3 355 -1103 3 c-607 1 -1106 0 -1108 -2z m1341 -74 c621 -4 704 -6 737
-21 21 -9 42 -25 48 -36 13 -24 15 -302 4 -401 -11 -98 -12 -98 -326 -98 -143
0 -276 -5 -296 -11 -45 -12 -98 -63 -114 -111 -9 -24 -13 -154 -14 -429 -4
-759 -5 -815 -16 -852 -19 -64 -34 -69 -246 -69 -188 0 -216 4 -260 39 l-23
18 -5 625 c-4 674 -5 692 -57 735 -48 41 -96 46 -392 48 -154 1 -287 6 -296
10 -23 10 -33 151 -30 397 1 143 6 150 127 158 49 3 172 5 274 4 102 -1 500
-4 885 -6z"/>
<path d="M3960 5970 c-25 -5 -82 -9 -126 -9 -60 -1 -85 -5 -94 -16 -8 -9 -29
-15 -56 -15 -24 0 -49 -6 -58 -15 -8 -8 -25 -15 -38 -15 -13 0 -33 -7 -44 -15
-10 -8 -29 -15 -40 -15 -12 0 -27 -7 -34 -15 -7 -8 -20 -15 -30 -15 -10 0 -23
-7 -30 -15 -7 -8 -20 -15 -30 -15 -10 0 -23 -7 -30 -15 -7 -8 -17 -15 -22 -15
-6 0 -27 -13 -48 -30 -21 -16 -42 -30 -46 -30 -15 0 -164 -139 -259 -241 -44
-48 -105 -134 -105 -150 0 -5 -4 -9 -10 -9 -5 0 -12 -11 -16 -24 -3 -14 -12
-27 -20 -30 -8 -3 -14 -16 -14 -30 0 -13 -7 -26 -15 -30 -8 -3 -15 -16 -15
-28 0 -13 -7 -32 -15 -42 -8 -11 -15 -28 -15 -39 0 -10 -7 -25 -15 -33 -8 -9
-15 -30 -15 -47 0 -18 -7 -41 -15 -51 -8 -11 -15 -41 -15 -66 0 -25 -6 -52
-12 -58 -10 -10 -14 -75 -16 -238 -3 -188 -1 -229 12 -256 9 -17 16 -50 16
-73 0 -22 7 -50 15 -61 8 -10 15 -33 15 -50 0 -17 7 -37 15 -44 8 -7 15 -25
15 -40 0 -15 7 -33 15 -40 8 -7 15 -20 15 -30 0 -10 7 -23 15 -30 8 -7 15 -20
15 -30 0 -10 7 -23 15 -30 8 -7 15 -21 15 -31 0 -10 6 -22 14 -26 8 -4 24 -26
35 -48 12 -22 46 -64 75 -94 53 -53 54 -55 38 -77 -10 -13 -27 -25 -39 -28
-22 -6 -153 -126 -153 -140 0 -5 -13 -25 -30 -46 -16 -21 -30 -42 -30 -48 0
-5 -7 -15 -15 -22 -8 -7 -15 -23 -15 -35 0 -12 -7 -28 -15 -35 -8 -7 -15 -27
-15 -45 0 -18 -7 -38 -15 -45 -22 -18 -22 -366 0 -394 8 -11 15 -32 15 -47 0
-14 7 -32 15 -39 8 -7 15 -23 15 -35 0 -12 7 -28 15 -35 8 -7 15 -17 15 -22 0
-13 86 -125 129 -169 37 -36 172 -129 189 -129 5 0 15 -7 22 -15 7 -8 23 -15
35 -15 12 0 28 -7 35 -15 7 -8 29 -15 49 -15 20 0 45 -7 55 -15 15 -11 48 -15
127 -15 86 0 108 -3 113 -15 3 -8 13 -15 22 -15 19 0 94 -74 94 -94 0 -6 7
-21 15 -32 8 -10 14 -35 14 -54 0 -19 -6 -44 -14 -54 -8 -11 -15 -27 -15 -36
0 -36 -91 -106 -166 -128 -66 -19 -141 -12 -194 19 -8 5 -25 13 -37 19 -12 5
-32 23 -44 40 -20 27 -27 29 -58 24 -20 -3 -41 -12 -47 -20 -6 -8 -23 -14 -36
-14 -14 0 -31 -7 -38 -15 -7 -8 -23 -15 -35 -15 -12 0 -28 -7 -35 -15 -7 -8
-25 -15 -40 -15 -15 0 -33 -7 -40 -15 -7 -8 -22 -15 -34 -15 -12 0 -31 -7 -42
-15 -10 -8 -34 -15 -51 -15 -28 0 -33 -4 -33 -24 0 -13 7 -29 15 -36 8 -7 15
-21 15 -32 0 -10 7 -21 15 -24 8 -4 15 -12 15 -20 0 -18 94 -141 141 -184 82
-75 122 -105 176 -129 11 -5 24 -15 28 -20 3 -6 19 -11 34 -11 16 0 34 -7 41
-15 7 -8 27 -15 44 -15 17 -1 42 -7 56 -15 36 -21 327 -21 354 0 11 8 34 15
51 15 17 0 40 7 51 15 10 8 29 15 41 15 12 0 25 5 28 11 4 5 17 14 28 20 59
25 132 82 210 162 37 38 67 74 67 79 0 5 11 24 23 41 33 44 67 114 67 136 0
10 7 24 15 31 9 8 15 30 15 59 1 25 7 57 15 71 20 35 20 199 0 247 -8 19 -15
55 -15 78 0 26 -6 48 -15 55 -8 7 -15 22 -15 34 -1 11 -12 39 -25 61 -14 22
-28 47 -32 55 -31 65 -188 240 -215 240 -6 0 -27 14 -48 30 -21 17 -43 30 -50
30 -6 0 -18 7 -26 15 -9 8 -26 15 -38 15 -13 0 -29 7 -36 15 -7 8 -29 15 -49
15 -20 1 -47 7 -61 15 -14 8 -53 14 -89 15 -81 0 -134 24 -191 87 -42 47 -43
48 -43 123 -1 68 2 81 29 120 25 38 65 71 99 83 98 35 114 36 360 36 138 0
292 -4 343 -7 51 -4 98 -5 103 -1 7 4 10 126 10 340 l0 334 -88 -4 c-72 -2
-91 0 -102 13 -9 10 -29 16 -56 16 -26 0 -48 6 -55 15 -7 8 -23 15 -35 15 -24
0 -78 25 -103 48 -7 6 -19 12 -26 12 -13 0 -161 142 -184 176 -6 10 -16 29
-21 41 -6 11 -15 24 -20 28 -6 3 -11 15 -11 26 0 11 -7 22 -15 25 -8 4 -15 18
-15 33 0 15 -7 36 -15 47 -22 28 -22 376 0 394 8 7 15 25 15 40 0 15 7 33 15
40 8 7 15 20 15 30 0 10 7 20 15 24 8 3 15 14 15 25 0 28 165 192 227 227 29
16 53 32 53 37 0 4 11 7 24 7 13 0 29 7 36 15 7 8 27 15 44 15 17 0 41 7 52
15 15 10 55 15 130 17 l109 3 -5 40 c-3 22 -5 157 -5 300 0 143 2 271 5 285 4
22 1 25 -35 31 -77 13 -190 17 -235 9z m141 -70 c42 -12 47 -17 59 -58 11 -39
14 -230 6 -384 -3 -50 -30 -88 -62 -88 -27 0 -136 -28 -237 -61 -135 -44 -303
-198 -386 -354 -63 -117 -73 -165 -73 -345 -1 -162 0 -166 32 -255 34 -92 39
-102 96 -190 35 -54 118 -132 200 -188 53 -37 156 -78 259 -103 33 -8 68 -19
77 -25 10 -5 26 -9 35 -9 35 0 43 -46 43 -236 0 -99 -5 -194 -10 -211 -21 -59
-39 -63 -341 -64 -313 -1 -364 -8 -457 -69 -45 -29 -64 -49 -89 -99 -28 -54
-33 -72 -33 -135 0 -76 12 -113 56 -173 26 -34 107 -93 129 -93 8 0 16 -4 19
-9 4 -5 39 -14 79 -21 181 -29 310 -89 424 -199 144 -140 211 -278 228 -474 8
-86 -10 -232 -32 -258 -7 -9 -20 -38 -28 -66 -20 -69 -56 -118 -165 -228 -50
-50 -112 -96 -160 -117 -140 -63 -202 -81 -295 -85 -107 -4 -283 34 -345 75
-14 9 -42 25 -62 37 -60 32 -167 133 -190 178 -11 23 -25 45 -30 48 -5 3 -8
19 -6 35 3 30 11 35 108 77 135 58 147 61 188 45 20 -8 53 -21 72 -28 19 -7
51 -18 70 -26 19 -7 63 -13 97 -14 152 -1 273 78 319 209 29 82 30 104 2 178
-47 125 -140 186 -326 210 -112 14 -207 42 -270 79 -115 66 -155 99 -214 175
-142 183 -157 229 -158 484 -1 81 3 99 36 182 21 51 49 105 63 121 14 15 38
46 52 68 14 21 53 69 87 106 33 37 66 77 72 89 16 29 6 72 -28 122 -66 97
-100 153 -106 174 -4 11 -13 24 -21 27 -8 3 -15 12 -15 20 0 8 -16 43 -36 78
-35 61 -43 82 -79 213 -9 33 -21 76 -26 95 -34 121 -26 368 17 540 68 270 153
416 367 636 72 74 137 134 145 134 8 0 30 14 49 30 65 58 311 163 447 191 45
10 268 28 291 25 6 -1 31 -8 56 -16z"/>
<path d="M6654 5971 c-2 -2 -4 -319 -4 -703 0 -598 2 -704 15 -735 8 -19 15
-52 15 -73 0 -21 7 -43 15 -50 8 -7 15 -25 15 -40 0 -15 7 -33 15 -40 8 -7 15
-21 15 -31 0 -10 5 -21 11 -24 5 -4 14 -17 20 -28 25 -59 81 -130 169 -215 41
-41 84 -78 95 -83 33 -15 59 -33 68 -46 4 -7 16 -13 26 -13 10 0 24 -7 31 -15
7 -8 23 -15 35 -15 12 0 28 -7 35 -15 7 -8 27 -15 45 -15 18 0 38 -6 44 -14
30 -36 452 -36 482 0 6 8 26 14 44 14 18 0 38 7 45 15 7 8 23 15 35 15 12 0
28 7 35 15 7 8 18 15 25 15 6 0 31 13 53 30 23 17 47 30 52 30 17 0 210 197
210 215 0 9 7 18 15 21 8 4 15 12 15 19 0 7 7 18 15 25 8 7 15 21 15 31 0 11
4 19 10 19 5 0 13 12 16 28 4 15 13 36 20 47 8 11 14 31 14 46 0 15 6 32 14
38 8 7 16 40 20 79 3 37 10 99 15 137 6 39 10 345 10 695 l1 625 -285 0 -285
0 0 -667 c0 -397 -4 -669 -9 -673 -5 -3 -13 -20 -17 -37 -14 -65 -143 -198
-191 -198 -11 0 -28 -7 -39 -15 -26 -20 -162 -20 -188 0 -11 8 -30 15 -43 15
-13 0 -23 4 -23 10 0 5 -11 12 -25 16 -20 5 -86 68 -113 109 -43 65 -42 42
-45 758 l-2 678 -278 2 c-153 1 -281 0 -283 -2z m459 -109 c18 -19 19 -42 22
-608 2 -394 7 -606 15 -639 14 -63 72 -169 108 -200 75 -63 125 -95 146 -95
14 0 36 -4 49 -9 41 -16 188 -14 232 2 81 31 159 87 212 153 29 36 56 77 59
92 3 15 12 43 19 62 13 34 14 65 16 375 0 72 5 144 11 161 6 18 8 39 3 50 -5
11 -10 147 -11 304 -2 296 1 327 42 361 8 6 64 12 141 14 110 2 131 0 165 -17
29 -15 40 -29 48 -59 6 -22 8 -43 6 -48 -6 -10 -8 -207 -7 -735 0 -191 -2
-353 -6 -359 -3 -5 -8 -29 -9 -51 -8 -111 -31 -193 -78 -280 -14 -27 -26 -54
-26 -61 0 -6 -13 -21 -30 -33 -16 -13 -30 -29 -30 -38 0 -19 -165 -181 -205
-200 -16 -8 -52 -28 -80 -44 -67 -39 -59 -36 -155 -59 -129 -31 -286 -35 -384
-10 -44 11 -89 27 -100 35 -11 8 -28 14 -37 14 -36 0 -147 69 -214 132 -114
109 -139 137 -162 183 -14 27 -32 54 -39 60 -20 16 -70 159 -85 245 -5 30 -12
320 -15 644 -5 531 -4 593 11 632 9 23 24 45 33 48 9 2 84 3 166 1 131 -3 152
-6 169 -23z"/>
<path d="M480 5923 c0 -4 0 -2681 0 -2690 0 -5 150 -7 332 -6 l333 2 -1 33
c-1 18 -4 294 -7 613 -6 568 -12 725 -27 725 -14 0 -20 -214 -23 -735 -2 -570
-2 -563 -67 -577 -19 -4 -127 -8 -239 -9 -202 -2 -204 -2 -221 21 -10 13 -20
44 -23 69 -3 25 -5 589 -4 1253 2 1144 3 1208 20 1225 16 16 44 18 273 21 245
3 256 2 281 -18 28 -22 102 -136 103 -157 0 -7 4 -13 9 -13 4 0 16 -21 26 -47
10 -26 40 -85 67 -131 26 -46 48 -91 48 -100 0 -8 6 -23 14 -31 15 -18 47 -74
117 -209 27 -50 55 -102 63 -115 7 -12 19 -39 25 -59 7 -20 18 -42 26 -48 8
-7 37 -58 65 -113 108 -216 178 -322 198 -303 4 4 -1 13 -11 20 -9 7 -17 25
-17 40 0 14 -4 26 -10 26 -5 0 -10 8 -10 18 0 10 -7 27 -15 38 -8 10 -15 27
-15 37 0 10 -7 20 -15 23 -8 4 -15 14 -15 24 0 10 -7 25 -15 34 -8 8 -15 21
-15 30 0 8 -6 21 -12 28 -7 7 -28 42 -46 78 -19 36 -50 97 -70 135 -20 39 -40
72 -44 73 -4 2 -8 12 -8 22 0 9 -7 23 -15 30 -8 7 -15 20 -15 30 0 10 -7 23
-15 30 -8 7 -15 21 -15 32 0 10 -7 21 -15 24 -8 4 -15 17 -15 30 0 14 -7 27
-15 30 -8 4 -15 14 -15 24 0 10 -6 25 -12 32 -7 7 -24 36 -37 63 -14 28 -27
52 -30 55 -3 3 -24 41 -45 85 -22 44 -43 82 -48 83 -4 2 -8 12 -8 22 0 9 -7
23 -15 30 -8 7 -15 20 -15 30 0 10 -7 23 -15 30 -8 7 -15 20 -15 30 0 10 -6
23 -14 30 -8 6 -16 20 -18 31 -3 20 -12 20 -341 22 -185 1 -337 1 -337 0z"/>
<path d="M1914 5917 c-8 -21 2 -1362 11 -1376 6 -11 9 -11 16 0 16 27 21 167
22 711 l2 558 26 26 27 27 203 3 c114 2 217 -1 234 -7 20 -6 36 -22 48 -47 17
-35 18 -84 13 -882 -9 -1635 -8 -1614 -60 -1625 -86 -17 -335 -20 -490 -6 -19
1 -79 84 -123 168 -40 78 -66 127 -111 207 -18 30 -32 61 -32 67 0 7 -11 27
-25 44 -13 18 -44 73 -68 121 -24 49 -62 123 -85 164 -23 41 -42 82 -42 91 0
9 -7 22 -15 29 -8 7 -24 32 -35 56 -10 24 -23 44 -27 44 -5 0 -26 36 -46 79
-21 44 -45 85 -53 92 -8 6 -14 16 -14 21 0 6 -13 29 -28 52 -15 22 -31 49 -35
59 -10 25 -27 21 -27 -8 0 -14 4 -25 10 -25 5 0 12 -11 16 -25 6 -24 88 -190
126 -255 4 -8 13 -27 19 -42 6 -16 15 -28 20 -28 5 0 9 -8 9 -19 0 -10 7 -24
15 -31 8 -7 15 -20 15 -30 0 -10 7 -23 15 -30 8 -7 15 -21 15 -32 0 -10 7 -21
15 -24 8 -4 15 -17 15 -30 0 -14 7 -27 15 -30 8 -4 15 -14 15 -24 0 -10 7 -25
15 -34 8 -8 15 -21 15 -30 0 -8 4 -18 10 -21 5 -3 22 -33 37 -65 15 -33 31
-60 35 -60 4 0 8 -9 8 -19 0 -11 6 -26 13 -33 6 -7 22 -34 35 -60 13 -26 27
-50 33 -53 5 -4 9 -14 9 -24 0 -10 7 -24 15 -31 8 -7 15 -20 15 -30 0 -10 7
-23 15 -30 8 -7 15 -20 15 -30 0 -10 7 -23 15 -30 8 -7 15 -21 15 -32 0 -10 7
-21 15 -24 8 -4 15 -17 15 -30 0 -14 7 -27 15 -30 8 -4 15 -17 15 -30 0 -14 7
-27 16 -31 8 -3 153 -6 322 -7 169 -1 316 -4 327 -6 20 -5 20 0 20 1350 l0
1355 -85 -5 c-122 -7 -489 -5 -528 3 -22 5 -34 3 -38 -6z"/>
<path d="M7460 5213 c-14 -3 -29 -11 -33 -19 -4 -8 -14 -14 -21 -14 -8 0 -32
-24 -54 -53 -33 -45 -41 -63 -44 -108 l-3 -54 110 1 109 0 2 100 c1 54 4 110
6 124 2 21 -1 25 -22 26 -14 1 -36 0 -50 -3z"/>
<path d="M7588 5210 c-1 -5 -1 -63 2 -127 l5 -118 90 -2 c50 -1 99 -3 110 -5
26 -4 32 34 11 67 -9 13 -16 31 -16 40 0 28 -64 114 -84 115 -5 0 -17 6 -25
14 -21 18 -88 30 -93 16z"/>
<path d="M7303 4896 c-8 -12 -3 -166 6 -228 5 -29 14 -54 20 -56 6 -2 11 -9
11 -16 0 -13 61 -76 74 -76 5 0 14 -7 21 -16 18 -25 206 -25 233 -1 10 9 23
17 30 17 16 0 92 93 92 113 0 10 6 30 14 45 9 18 12 59 11 126 l-2 99 -253 1
c-138 1 -254 -3 -257 -8z m367 -65 c28 -5 36 -13 41 -36 3 -17 7 -34 9 -40 8
-33 -4 -68 -35 -101 -19 -20 -35 -40 -35 -45 0 -4 -24 -15 -53 -25 -52 -16
-54 -16 -102 7 -70 34 -116 106 -101 162 3 12 14 36 25 54 l20 32 98 0 c54 0
114 -4 133 -8z"/>
<path d="M4920 3422 c-65 -31 -100 -108 -100 -217 0 -118 44 -205 114 -225 64
-18 116 0 158 52 l33 42 0 127 c0 127 0 127 -31 165 -57 71 -109 87 -174 56z
m109 -61 c24 -21 51 -113 50 -169 -1 -57 -31 -133 -61 -155 -35 -26 -70 -17
-105 30 -25 32 -28 46 -31 124 -4 78 -1 93 19 126 12 21 29 44 37 51 23 18 66
15 91 -7z"/>
<path d="M5329 3318 c-1 -57 -4 -150 -8 -208 -8 -114 -1 -138 38 -125 19 6 21
14 23 163 3 132 5 157 18 157 8 0 17 -11 18 -25 2 -13 10 -33 18 -44 8 -11 14
-29 14 -39 0 -24 39 -79 51 -72 5 4 9 17 9 30 0 13 7 38 16 57 45 90 53 103
60 100 5 -1 10 -71 11 -155 0 -83 1 -158 2 -164 1 -7 12 -13 25 -13 39 0 44
17 34 115 -5 50 -12 142 -16 205 l-7 115 -29 3 c-34 4 -65 -28 -66 -65 0 -12
-4 -25 -10 -28 -5 -3 -15 -25 -21 -48 l-11 -42 -24 28 c-13 16 -24 39 -24 51
0 13 -6 29 -14 36 -8 6 -16 24 -18 38 -3 24 -8 27 -45 30 l-43 3 -1 -103z"/>
<path d="M5884 3413 c-8 -6 -12 -71 -12 -216 l0 -207 25 -6 c13 -4 27 -3 31 1
4 4 7 46 7 93 l0 87 71 3 c65 3 74 6 107 36 35 32 37 37 37 93 0 51 -4 64 -27
89 -26 28 -31 29 -127 32 -56 1 -106 -1 -112 -5z m194 -69 c47 -53 17 -108
-71 -126 -49 -11 -60 -10 -67 2 -14 22 -12 134 3 149 20 20 108 4 135 -25z"/>
<path d="M6374 3407 c-3 -8 -4 -95 -2 -193 3 -173 4 -180 27 -203 43 -43 157
-50 198 -12 49 44 53 61 53 246 l0 176 -32 -3 -33 -3 4 -171 3 -171 -28 -27
c-48 -44 -103 -33 -129 26 -15 34 -17 63 -14 192 4 150 4 151 -19 154 -12 2
-24 -3 -28 -11z"/>
<path d="M6854 3406 c-11 -29 7 -38 63 -34 31 3 57 0 60 -6 4 -5 7 -93 7 -195
l1 -186 30 0 30 0 -4 193 c-3 158 -1 192 10 193 8 1 37 2 64 3 43 1 50 4 50
21 0 19 -8 20 -153 23 -127 2 -153 0 -158 -12z"/>
<path d="M7400 3408 c-3 -231 0 -412 7 -419 6 -6 68 -8 139 -7 121 3 129 4
129 23 0 19 -8 20 -108 23 l-108 3 3 82 3 82 90 0 c83 0 90 1 90 20 0 19 -7
20 -90 20 l-90 0 0 70 0 69 105 1 c98 0 105 1 105 20 0 19 -8 20 -137 23 -107
2 -138 0 -138 -10z"/>
<path d="M7910 3408 c-1 -87 -1 -406 -1 -416 1 -9 11 -12 29 -10 l27 3 3 93 3
93 42 -3 c40 -3 42 -5 77 -73 52 -101 62 -115 85 -115 43 0 45 20 8 74 -20 28
-41 58 -49 66 -17 20 -29 70 -17 70 6 0 23 12 39 27 26 24 29 33 29 87 0 52
-4 65 -25 86 -23 23 -33 25 -137 28 -89 3 -113 1 -113 -10z m175 -42 c39 -17
52 -49 38 -93 -11 -33 -49 -54 -110 -61 l-43 -5 0 80 c0 44 3 83 7 86 11 12
72 8 108 -7z"/>
<path d="M4955 2603 c-49 -13 -100 -61 -110 -105 -4 -15 -11 -30 -16 -33 -12
-8 -12 -182 1 -190 6 -3 10 -16 10 -27 0 -11 20 -40 44 -64 41 -42 46 -44 103
-44 50 0 65 5 102 31 34 25 41 37 39 58 -4 38 -30 37 -73 -4 -91 -86 -175 -13
-175 153 0 72 3 83 30 120 27 37 35 42 70 42 39 0 80 -26 80 -50 0 -14 33 -13
48 2 26 26 3 61 -65 98 -38 20 -51 22 -88 13z"/>
<path d="M6967 2590 c-48 -26 -75 -53 -83 -85 -3 -14 -10 -28 -15 -31 -5 -3
-9 -47 -9 -98 0 -107 17 -154 75 -205 30 -26 44 -31 89 -31 43 0 61 6 95 30
48 35 58 54 41 75 -15 18 -37 10 -74 -27 -51 -50 -128 -27 -156 47 -16 43 -13
200 5 215 8 7 15 18 15 26 0 19 33 34 73 34 28 0 41 -7 64 -35 27 -34 29 -35
51 -20 27 19 28 39 4 63 -58 57 -120 72 -175 42z"/>
<path d="M5470 2591 c-68 -5 -75 -8 -78 -28 -3 -18 2 -23 20 -23 13 0 28 -4
34 -8 13 -8 13 -309 1 -329 -5 -7 -19 -13 -33 -13 -21 0 -25 -4 -22 -22 3 -22
8 -23 91 -24 48 0 90 3 93 8 12 18 -8 47 -34 50 l-27 3 0 165 c0 158 1 165 20
166 40 2 45 4 45 22 0 18 -19 44 -29 40 -4 -1 -40 -4 -81 -7z"/>
<path d="M5988 2593 l-118 -4 0 -218 0 -219 93 -7 c130 -9 181 -4 185 18 7 37
-12 43 -110 35 -51 -4 -96 -4 -101 1 -4 4 -7 41 -5 82 l3 74 87 -3 c90 -3 104
2 93 37 -5 18 -13 19 -96 14 l-90 -6 3 69 3 69 105 0 c93 0 105 2 108 18 4 21
-15 48 -32 45 -6 -1 -64 -4 -128 -5z"/>
<path d="M6376 2586 c-23 -17 -27 -425 -4 -439 8 -6 23 -7 32 -4 15 6 16 24
10 175 -7 181 -1 212 31 139 10 -23 26 -62 37 -87 11 -25 32 -71 49 -103 16
-31 29 -63 29 -70 0 -33 70 -72 84 -48 3 5 7 107 8 227 3 215 3 219 -18 222
-39 6 -43 -14 -34 -183 5 -88 7 -162 4 -164 -9 -10 -44 34 -44 56 0 12 -4 23
-10 23 -5 0 -10 6 -10 13 -1 6 -9 30 -20 52 -11 22 -19 46 -20 53 0 6 -4 12
-10 12 -5 0 -10 5 -10 11 0 5 -11 34 -24 63 -25 55 -53 73 -80 52z"/>
<path d="M7518 2593 l-117 -4 -3 -212 c-2 -117 0 -216 4 -222 4 -6 62 -10 140
-10 127 0 133 1 136 21 5 36 -16 42 -113 33 -49 -5 -93 -5 -98 0 -4 4 -7 41
-5 82 l3 74 88 -3 c72 -3 88 -1 93 12 14 35 -13 45 -102 39 l-85 -6 3 69 3 69
105 0 c93 0 105 2 108 18 4 21 -15 48 -32 45 -6 -1 -64 -4 -128 -5z"/>
<path d="M4543 1634 c-3 -8 -1 -20 4 -25 5 -5 764 -8 1974 -7 1956 3 1964 3
1964 23 0 20 -8 20 -1968 23 -1780 2 -1968 1 -1974 -14z"/>
</g>
</svg>
